# xmcd CD database file
#
# Track frame offsets:
#	150
#	12088
#	29286
#	41365
#	56241
#	71006
#	81701
#	99849
#	112374
#	121125
#	135752
#	146853
#	165316
#	178920
#	194381
#	204916
#	216057
#	227234
#
# Disc length: 3219 seconds
#
# Revision: 0
# Processed by: cddbd v1.5.2PL0 Copyright (c) Steve Scherf et al.
# Submitted via: CDex 1.51
#
DISCID=000c9112
DTITLE=Art Tatum - Selected
DYEAR=2001
DGENRE=Jazz
TTITLE0=Out of Nowhere
TTITLE1=Sweet Lorraine
TTITLE2=With Plenty of Money and You
TTITLE3=Melody in F
TTITLE4=September Song
TTITLE5=You Took Advantage of Me
TTITLE6=Where or When
TTITLE7=Lover for Sale
TTITLE8=Tiger Rag
TTITLE9=Just One of Those Things
TTITLE10=I Got Rhythm
TTITLE11=I Cover The Waterfront
TTITLE12=Danny Boy
TTITLE13=Body and Soul
TTITLE14=Emaline
TTITLE15=It Had to Be You
TTITLE16=Without a Song
TTITLE17=Little Man You've Had a Busy Day
EXTD=YEAR: 2001
EXTT0=
EXTT1=
EXTT2=
EXTT3=
EXTT4=
EXTT5=
EXTT6=
EXTT7=
EXTT8=
EXTT9=
EXTT10=
EXTT11=
EXTT12=
EXTT13=
EXTT14=
EXTT15=
EXTT16=
EXTT17=
PLAYORDER=
